<svg xmlns="http://www.w3.org/2000/svg" width="44" height="25.528" viewBox="0 0 44 25.528"><path d="M44,31.577a2.8,2.8,0,0,1-3.479-1.316L34.2,21.521l-.913-1.21L25.915,30.29a2.688,2.688,0,0,1-3.3,1.3l9.446-12.68L23.267,7.453c1.513-.294,2.558-.144,3.486,1.21L33.3,17.512l6.6-8.8A2.621,2.621,0,0,1,43.177,7.5l-3.41,4.521-4.62,6.016a1.246,1.246,0,0,0,.032,1.822ZM.011,18.7l.773-3.8c2.1-7.521,10.725-10.647,16.671-6,3.475,2.734,4.338,6.6,4.166,10.931H2.035c-.294,7.8,5.317,12.5,12.471,10.1a7.416,7.416,0,0,0,4.727-5.266c.375-1.232,1-1.425,2.155-1.073-.591,3.075-1.925,5.643-4.744,7.25-4.212,2.406-10.223,1.628-13.386-1.716A11.9,11.9,0,0,1,.248,22.1C.193,21.661.083,21.248,0,20.831Q.011,19.764.011,18.7Zm2.06-.523h17.7c-.116-5.638-3.626-9.642-8.423-9.676C6.08,8.456,2.3,12.365,2.071,18.173Z" transform="translate(0 -6.711)"/></svg>