<svg xmlns="http://www.w3.org/2000/svg" width="19.764" height="44" viewBox="0 0 19.764 44"><g transform="translate(0 0)"><path d="M15.909.087l1.174,2.205a6.589,6.589,0,0,0,.887,1.1,30.807,30.807,0,0,1,2.755,3.116,27.076,27.076,0,0,1,4.29,8.651,21.273,21.273,0,0,1,.91,5.871,20.718,20.718,0,0,1-6.05,15.289,17.461,17.461,0,0,1-2.159,1.845c-.407,0-.6-.312-.767-.6a4.934,4.934,0,0,1-.6-1.726,8.337,8.337,0,0,1-.192-2.181v-.335C16.125,33.254,15.766.256,15.909.087Z" transform="translate(-6.165 0.033)" fill="#599636"/><path d="M18.557.047c-.048-.1-.1-.023-.144.023a2.216,2.216,0,0,1-.407,1.32,6.324,6.324,0,0,1-1.055,1.055A22.966,22.966,0,0,0,11.8,9.011,26.378,26.378,0,0,0,8.83,19.747a35.72,35.72,0,0,0,.862,7.573,22.957,22.957,0,0,0,6.015,9.466,26.284,26.284,0,0,0,2.131,1.822c.216,0,.239-.192.289-.335a6.571,6.571,0,0,0,.216-.935l.481-3.594Z" transform="translate(-8.813 0)" fill="#6cac48"/><path d="M17.27,30.642a3.281,3.281,0,0,1,.6-1.462,1.513,1.513,0,0,1-.671-.623,4.448,4.448,0,0,1-.357-.791,13.684,13.684,0,0,1-.5-3.091v-.623a2.988,2.988,0,0,0-.144,1.031,23.883,23.883,0,0,1-.432,3.235,2.879,2.879,0,0,1-.385,1.246.477.477,0,0,0,.023.168,14.309,14.309,0,0,1,.623,3.883V34.1c0,.575-.023.454.454.646a2.1,2.1,0,0,1,.6.239c.144,0,.168-.12.168-.216l-.071-.791V31.77a5.832,5.832,0,0,1,.1-1.127Z" transform="translate(-6.352 9.018)" fill="#c2bfbf"/></g></svg>