<svg xmlns="http://www.w3.org/2000/svg" width="39.956" height="44" viewBox="0 0 39.956 44"><path d="M19.663.557a3.661,3.661,0,0,1,3.589,0L39.74,9.851a3.39,3.39,0,0,1,1.712,2.918V31.406a3.428,3.428,0,0,1-1.839,2.982l-16.4,9.252a3.589,3.589,0,0,1-3.643-.1l-4.921-2.844a2.916,2.916,0,0,1-.95-.683c.21-.282.583-.318.886-.442a10.5,10.5,0,0,0,1.941-.906.446.446,0,0,1,.505.03l4.2,2.427c.3.173.6-.055.86-.2l16.1-9.088a.533.533,0,0,0,.293-.525V12.852a.576.576,0,0,0-.345-.576L21.78,3.065a.566.566,0,0,0-.642,0L4.8,12.295a.57.57,0,0,0-.345.573V31.324a.518.518,0,0,0,.3.518L9.12,34.306a3.425,3.425,0,0,0,2.729.366,2.071,2.071,0,0,0,1.34-1.945l0-18.346a.459.459,0,0,1,.5-.469h2.1a.491.491,0,0,1,.456.559l0,18.462a4.687,4.687,0,0,1-2.189,4.228A6.749,6.749,0,0,1,8.028,37L3.335,34.4A3.379,3.379,0,0,1,1.5,31.418V12.782a3.4,3.4,0,0,1,1.77-2.956Zm4.754,12.918c2.384-.138,4.937-.091,7.082,1.084a5.359,5.359,0,0,1,2.612,4.636.5.5,0,0,1-.544.369c-.69,0-1.383.01-2.076,0a.535.535,0,0,1-.5-.519,3.161,3.161,0,0,0-1.512-2.184,8.95,8.95,0,0,0-4.147-.594A5.646,5.646,0,0,0,22.363,17a1.884,1.884,0,0,0-.625,2.1c.221.529.832.7,1.331.856,2.874.751,5.918.69,8.738,1.666a4.117,4.117,0,0,1,2.708,2.409,5.149,5.149,0,0,1-.87,4.909,6.964,6.964,0,0,1-3.693,1.991,17.694,17.694,0,0,1-5.574.235,8.789,8.789,0,0,1-4.9-1.844,5.146,5.146,0,0,1-1.657-4.059.466.466,0,0,1,.511-.41H20.4a.487.487,0,0,1,.5.483,3.128,3.128,0,0,0,1.179,2.209c1.416.914,3.193.85,4.814.877,1.343-.059,2.851-.077,3.948-.966a2.177,2.177,0,0,0,.594-2.082c-.17-.616-.828-.9-1.38-1.1-2.837-.9-5.915-.572-8.724-1.588a4.244,4.244,0,0,1-2.681-2.337,4.785,4.785,0,0,1,.957-4.979,7.683,7.683,0,0,1,4.79-1.924Z" transform="translate(-1.496 -0.086)" fill="#8cc84b"/></svg>