<svg xmlns="http://www.w3.org/2000/svg" width="52.564" height="58.071" viewBox="0 0 52.564 58.071"><g transform="translate(0.684 0.777)"><g transform="translate(-0.035 -0.011)"><circle cx="4.776" cy="4.776" r="4.776" transform="translate(20.858 17.838)" fill="#00d8ff"/><g transform="translate(0.035 0.011)"><path d="M25.634,7.725a53.582,53.582,0,0,1,16.86,2.466c5.411,1.863,8.738,4.687,8.738,7.244,0,2.665-3.526,5.664-9.337,7.59A53.8,53.8,0,0,1,25.634,27.24c-6.24,0-12.15-.713-16.592-2.231C3.421,23.088.035,20.049.035,17.435c0-2.536,3.177-5.338,8.512-7.2A54.05,54.05,0,0,1,25.633,7.725Z" transform="translate(-0.035 5.167)" fill="none" stroke="#00d8ff" stroke-width="1.367" fill-rule="evenodd"/><path d="M13.031,17.786A53.583,53.583,0,0,1,23.59,4.413C27.907.657,32.015-.815,34.23.462c2.308,1.331,3.145,5.884,1.91,11.88a53.772,53.772,0,0,1-6.2,15.193C26.818,32.941,23.249,37.7,19.714,40.793c-4.472,3.909-8.8,5.324-11.06,4.018-2.2-1.266-3.037-5.418-1.983-10.97A54.071,54.071,0,0,1,13.03,17.786Z" transform="translate(4.115 -0.011)" fill="none" stroke="#00d8ff" stroke-width="1.367" fill-rule="evenodd"/><path d="M13.033,27.529A53.6,53.6,0,0,1,6.721,11.7C5.622,6.086,6.4,1.791,8.612.511c2.306-1.335,6.669.214,11.246,4.278A53.8,53.8,0,0,1,29.923,17.752c3.127,5.4,5.47,10.872,6.381,15.477,1.153,5.827.22,10.28-2.042,11.589-2.195,1.271-6.211-.075-10.494-3.76A54.054,54.054,0,0,1,13.033,27.529Z" transform="translate(4.121 0.01)" fill="none" stroke="#00d8ff" stroke-width="1.367" fill-rule="evenodd"/></g></g><text transform="translate(25.598 55.294)" fill="#00d8ff" font-size="9" font-family="HelveticaNeue, Helvetica Neue"><tspan x="-18.252" y="0">React JS</tspan></text></g></svg>